<?xml version="1.0" standalone="no"?>
<!DOCTYPE svg PUBLIC "-//W3C//DTD SVG 20010904//EN"
 "http://www.w3.org/TR/2001/REC-SVG-20010904/DTD/svg10.dtd">
<svg version="1.0" xmlns="http://www.w3.org/2000/svg"
 width="500.000000pt" height="500.000000pt" viewBox="0 0 500.000000 500.000000"
 preserveAspectRatio="xMidYMid meet">

<g transform="translate(0.000000,500.000000) scale(0.100000,-0.100000)"
fill="#000000" stroke="none">
<path d="M90 2535 l0 -655 2405 0 2405 0 0 655 0 655 -2405 0 -2405 0 0 -655z
m4780 -5 l0 -630 -2375 0 -2375 0 0 630 0 630 2375 0 2375 0 0 -630z"/>
<path d="M220 2525 l0 -535 1135 0 1135 0 0 535 0 535 -1135 0 -1135 0 0 -535z
m578 191 c39 -13 98 -68 105 -96 7 -28 -38 -27 -53 1 -30 55 -127 76 -187 39
-90 -54 -82 -206 12 -246 66 -27 143 -7 173 46 11 19 25 30 40 30 27 0 28 -16
4 -52 -78 -119 -260 -110 -321 14 -34 71 -23 166 27 222 43 48 132 67 200 42z
m477 -5 c74 -34 105 -85 105 -172 0 -92 -48 -157 -133 -180 -50 -13 -124 0
-167 31 -38 27 -70 96 -70 151 1 139 139 228 265 170z m445 -13 c79 -41 110
-116 85 -210 -24 -93 -82 -127 -217 -128 l-88 0 0 180 0 180 88 0 c71 0 96 -4
132 -22z m440 2 c0 -19 -7 -20 -90 -20 l-90 0 0 -55 0 -55 80 0 c79 0 80 0 80
-25 0 -25 -1 -25 -80 -25 l-80 0 0 -60 0 -60 90 0 c83 0 90 -1 90 -20 0 -19
-7 -20 -115 -20 l-115 0 0 180 0 180 115 0 c108 0 115 -1 115 -20z"/>
<path d="M1123 2661 c-89 -56 -82 -207 12 -247 91 -37 189 13 196 101 5 64 -2
86 -34 122 -29 31 -41 37 -88 40 -42 3 -61 0 -86 -16z"/>
<path d="M1550 2540 l0 -143 66 6 c37 4 77 13 90 22 56 37 78 116 47 174 -28
53 -62 72 -137 78 l-66 6 0 -143z"/>
<path d="M3021 2720 c-100 -25 -154 -125 -126 -234 26 -99 125 -150 234 -122
84 22 131 81 131 166 l0 40 -100 0 -100 0 0 -35 0 -35 50 0 c47 0 50 -1 40
-19 -13 -26 -70 -44 -101 -32 -29 11 -54 38 -64 69 -10 35 13 90 45 107 38 20
59 19 98 -5 21 -13 50 -20 83 -20 48 0 49 1 38 23 -17 32 -50 67 -79 82 -34
18 -108 25 -149 15z"/>
<path d="M3320 2540 l0 -180 50 0 50 0 0 50 c0 46 2 50 23 50 18 0 29 -11 47
-50 l23 -50 59 0 59 0 -32 60 -31 59 26 31 c14 18 26 44 27 58 5 120 -37 152
-200 152 l-101 0 0 -180z m184 87 c12 -9 17 -23 14 -42 -2 -23 -10 -31 -35
-38 -50 -15 -63 -4 -63 48 0 44 1 45 33 45 18 0 41 -6 51 -13z"/>
<path d="M3791 2698 c-5 -13 -30 -77 -56 -143 -26 -66 -53 -137 -61 -157 l-13
-38 54 0 c50 0 55 2 61 25 6 23 10 25 70 25 59 0 65 -2 76 -25 10 -22 17 -25
65 -25 l53 0 -15 38 c-8 20 -39 100 -69 177 l-53 140 -52 3 c-45 3 -52 1 -60
-20z m78 -145 c7 -21 15 -44 17 -50 4 -9 -7 -13 -36 -13 -30 0 -41 4 -37 13 2
6 10 29 18 50 7 20 16 37 19 37 4 0 12 -17 19 -37z"/>
<path d="M4080 2540 l0 -180 50 0 49 0 3 93 3 92 34 -47 c31 -42 39 -48 72
-48 32 0 40 5 65 43 l29 42 3 -87 3 -88 49 0 50 0 0 180 0 180 -40 0 c-38 0
-41 -2 -97 -85 -32 -46 -60 -84 -63 -84 -3 0 -32 38 -64 84 -59 85 -59 85
-102 85 l-44 0 0 -180z"/>
</g>
</svg>
